<svg 
  xmlns="http://www.w3.org/2000/svg" 
  viewBox="0 0 24 24"
  fill="currentColor"
  role="img"
  aria-label="Baby Icon"
  aria-hidden="false"
  width="24"
  height="24"
>
  <path d="M12 2a3 3 0 0 1 3 3c0 1.24-.76 2.3-1.83 2.75l.46.46A5.99 5.99 0 0 1 18 14v4a2 2 0 0 1-2 2h-8a2 2 0 0 1-2-2v-4c0-2.21 1.2-4.15 3-5.19l.46-.46A2.992 2.992 0 0 1 9 5a3 3 0 0 1 3-3zm0 2a1 1 0 1 0 0 2 1 1 0 0 0 0-2zm-4 9v5h8v-5c0-2.21-1.79-4-4-4s-4 1.79-4 4zm2.5 1a1.5 1.5 0 1 1 0 3 1.5 1.5 0 0 1 0-3zm3 0a1.5 1.5 0 1 1 0 3 1.5 1.5 0 0 1 0-3z"/>
</svg>